%TF.GenerationSoftware,KiCad,Pcbnew,(6.0.2)*%
%TF.CreationDate,2022-03-10T12:39:36+08:00*%
%TF.ProjectId,sweepv2.1,73776565-7076-4322-9e31-2e6b69636164,rev?*%
%TF.SameCoordinates,Original*%
%TF.FileFunction,Profile,NP*%
%FSLAX46Y46*%
G04 Gerber Fmt 4.6, Leading zero omitted, Abs format (unit mm)*
G04 Created by KiCad (PCBNEW (6.0.2)) date 2022-03-10 12:39:36*
%MOMM*%
%LPD*%
G01*
G04 APERTURE LIST*
%TA.AperFunction,Profile*%
%ADD10C,0.050000*%
%TD*%
G04 APERTURE END LIST*
D10*
X220026090Y-32007001D02*
G75*
G03*
X218095172Y-29972000I-2000916J35004D01*
G01*
X184339089Y-25746954D02*
G75*
G03*
X186270008Y-27781955I2000918J-35002D01*
G01*
X165286089Y-29083000D02*
G75*
G03*
X167321090Y-27152082I35004J2000916D01*
G01*
X151291046Y-29090896D02*
G75*
G03*
X149256045Y-31021814I-182788J-1845165D01*
G01*
X147221044Y-41021000D02*
G75*
G03*
X149256045Y-39090082I35004J2000916D01*
G01*
X133619469Y-41020081D02*
G75*
G03*
X131584468Y-42951000I-35002J-2000918D01*
G01*
X129057918Y-43056001D02*
G75*
G03*
X127127000Y-41021000I-2000916J35004D01*
G01*
X111283044Y-38989000D02*
G75*
G03*
X113213963Y-41024001I2000918J-35002D01*
G01*
X93249045Y-27162531D02*
X93249045Y-22987000D01*
X93249045Y-22987000D02*
G75*
G03*
X92583000Y-22320955I-666045J0D01*
G01*
X76866045Y-22320955D02*
G75*
G03*
X76200000Y-22987000I0J-666045D01*
G01*
X111277918Y-31229532D02*
G75*
G03*
X109347000Y-29194531I-2000916J35004D01*
G01*
X109347000Y-29194531D02*
X95179963Y-29197532D01*
X93249044Y-27162531D02*
G75*
G03*
X95179963Y-29197532I2000918J-35002D01*
G01*
X76200000Y-22987000D02*
X76200000Y-25825119D01*
X74164999Y-27756037D02*
G75*
G03*
X76200000Y-25825119I35004J2000916D01*
G01*
X40481999Y-32004000D02*
X40481999Y-47763999D01*
X42517000Y-30073081D02*
G75*
G03*
X40481999Y-32004000I-35002J-2000918D01*
G01*
X219998001Y-47763999D02*
X220026090Y-32007001D01*
X223714000Y-108050000D02*
G75*
G03*
X226446000Y-107451265I1070000J1650000D01*
G01*
X219998002Y-47763999D02*
G75*
G03*
X222033002Y-49694917I2000000J70001D01*
G01*
X238688000Y-50442000D02*
G75*
G03*
X237938000Y-49692000I-750000J0D01*
G01*
X131506254Y-89547024D02*
G75*
G03*
X133544000Y-91383119I1977999J146416D01*
G01*
X223714000Y-108050000D02*
G75*
G03*
X202185134Y-98863946I-44316008J-74040014D01*
G01*
X222033002Y-49694917D02*
X237938000Y-49692000D01*
X202185134Y-98863946D02*
G75*
G03*
X133544000Y-91383119I-69219163J-316475410D01*
G01*
X238688000Y-58420000D02*
X238688000Y-66548000D01*
X236953304Y-88858150D02*
X226446000Y-107451265D01*
X236953304Y-88858150D02*
G75*
G03*
X238700000Y-81534000I-15027155J7454098D01*
G01*
X238688000Y-50442000D02*
X238688000Y-58420000D01*
X131584468Y-42951000D02*
X131572000Y-48768000D01*
X129349500Y-48768000D02*
X128960000Y-48768000D01*
X238688000Y-66548000D02*
X238688000Y-75438000D01*
X238688000Y-75438000D02*
X238700000Y-81534000D01*
X129349500Y-72644000D02*
X128960000Y-72644000D01*
X129349500Y-53848000D02*
X128960000Y-53848000D01*
X129349500Y-77724000D02*
X128960000Y-77724000D01*
X131572000Y-53848000D02*
X131572000Y-72644000D01*
X21792000Y-50442000D02*
X21792000Y-58420000D01*
X128960000Y-77724000D02*
X128975507Y-89545022D01*
X126936000Y-91383119D02*
G75*
G03*
X128975507Y-89545022I59508J1984513D01*
G01*
X21792000Y-66548000D02*
X21792000Y-73914000D01*
X23526696Y-88858150D02*
X34034000Y-107451265D01*
X38446998Y-49694917D02*
G75*
G03*
X40481999Y-47763999I35004J2000916D01*
G01*
X126936000Y-91383119D02*
G75*
G03*
X58294866Y-98863946I578048J-323956411D01*
G01*
X21780000Y-81534000D02*
G75*
G03*
X23526696Y-88858150I16773851J129948D01*
G01*
X22542000Y-49692000D02*
G75*
G03*
X21792000Y-50442000I0J-750000D01*
G01*
X38446998Y-49694917D02*
X22542000Y-49692000D01*
X21792000Y-58420000D02*
X21792000Y-66548000D01*
X34034000Y-107451265D02*
G75*
G03*
X36766000Y-108050000I1662000J1051265D01*
G01*
X58294866Y-98863946D02*
G75*
G03*
X36766000Y-108050000I22787142J-83226068D01*
G01*
X21792000Y-73914000D02*
X21780000Y-81534000D01*
X128960000Y-53848000D02*
X128960000Y-72644000D01*
X129057918Y-43056001D02*
X128960000Y-48768000D01*
X202373090Y-28448000D02*
X202373090Y-29321478D01*
X74164999Y-27756037D02*
X58804045Y-27756037D01*
X131572000Y-48768000D02*
X131254500Y-48768000D01*
X202373090Y-28448000D02*
G75*
G03*
X201707045Y-27781955I-666045J0D01*
G01*
X92583000Y-22320955D02*
X76866045Y-22320955D01*
X127127000Y-41021000D02*
X113213963Y-41024001D01*
X129349501Y-72643999D02*
G75*
G03*
X131254499Y-72644000I952499J380999D01*
G01*
X131572000Y-53848000D02*
X131254500Y-53848000D01*
X57471955Y-30073082D02*
G75*
G03*
X58138000Y-29407037I0J666045D01*
G01*
X165286089Y-29083000D02*
X151291046Y-29090896D01*
X218095172Y-29972000D02*
X203039135Y-29987523D01*
X131506254Y-89547024D02*
X131508500Y-77724000D01*
X58138000Y-28422082D02*
X58138000Y-29407037D01*
X131254499Y-77724001D02*
G75*
G03*
X129349501Y-77724000I-952499J-380999D01*
G01*
X57471955Y-30073082D02*
X42517000Y-30073082D01*
X184339090Y-22987000D02*
G75*
G03*
X183673045Y-22320955I-666045J0D01*
G01*
X167987135Y-22320955D02*
G75*
G03*
X167321090Y-22987000I0J-666045D01*
G01*
X201707045Y-27781955D02*
X186270008Y-27781955D01*
X167321090Y-27152082D02*
X167321090Y-22987000D01*
X183673045Y-22320955D02*
X167987135Y-22320955D01*
X131572000Y-72644000D02*
X131254500Y-72644000D01*
X149256045Y-39090082D02*
X149256045Y-31021814D01*
X184339090Y-22987000D02*
X184339090Y-25746954D01*
X147221044Y-41021000D02*
X133619469Y-41020082D01*
X129349501Y-48767999D02*
G75*
G03*
X131254499Y-48768000I952499J380999D01*
G01*
X131508500Y-77724000D02*
X131254500Y-77724000D01*
X131254499Y-53848001D02*
G75*
G03*
X129349501Y-53848000I-952499J-380999D01*
G01*
X111283045Y-38989000D02*
X111277918Y-31229532D01*
X202373090Y-29321478D02*
G75*
G03*
X203039135Y-29987523I666045J0D01*
G01*
X58804045Y-27756037D02*
G75*
G03*
X58138000Y-28422082I0J-666045D01*
G01*
M02*
